%TF.GenerationSoftware,KiCad,Pcbnew,(5.1.5)-3*%
%TF.CreationDate,2020-04-25T09:08:57+02:00*%
%TF.ProjectId,SlimMPX,536c696d-4d50-4582-9e6b-696361645f70,rev?*%
%TF.SameCoordinates,Original*%
%TF.FileFunction,Copper,L2,Bot*%
%TF.FilePolarity,Positive*%
%FSLAX46Y46*%
G04 Gerber Fmt 4.6, Leading zero omitted, Abs format (unit mm)*
G04 Created by KiCad (PCBNEW (5.1.5)-3) date 2020-04-25 09:08:57*
%MOMM*%
%LPD*%
G04 APERTURE LIST*
%ADD10C,0.100000*%
%ADD11C,1.600000*%
%ADD12C,1.000000*%
%ADD13C,1.000000*%
%ADD14C,0.200000*%
G04 APERTURE END LIST*
%TA.AperFunction,ConnectorPad*%
D10*
G36*
X114494108Y-112002167D02*
G01*
X114537791Y-112008647D01*
X114580628Y-112019377D01*
X114622208Y-112034254D01*
X114662129Y-112053135D01*
X114700007Y-112075839D01*
X114735477Y-112102145D01*
X114768198Y-112131802D01*
X114797855Y-112164523D01*
X114824161Y-112199993D01*
X114846865Y-112237871D01*
X114865746Y-112277792D01*
X114880623Y-112319372D01*
X114891353Y-112362209D01*
X114897833Y-112405892D01*
X114900000Y-112450000D01*
X114900000Y-114550000D01*
X114897833Y-114594108D01*
X114891353Y-114637791D01*
X114880623Y-114680628D01*
X114865746Y-114722208D01*
X114846865Y-114762129D01*
X114824161Y-114800007D01*
X114797855Y-114835477D01*
X114768198Y-114868198D01*
X114735477Y-114897855D01*
X114700007Y-114924161D01*
X114662129Y-114946865D01*
X114622208Y-114965746D01*
X114580628Y-114980623D01*
X114537791Y-114991353D01*
X114494108Y-114997833D01*
X114450000Y-115000000D01*
X113550000Y-115000000D01*
X113505892Y-114997833D01*
X113462209Y-114991353D01*
X113419372Y-114980623D01*
X113377792Y-114965746D01*
X113337871Y-114946865D01*
X113299993Y-114924161D01*
X113264523Y-114897855D01*
X113231802Y-114868198D01*
X113202145Y-114835477D01*
X113175839Y-114800007D01*
X113153135Y-114762129D01*
X113134254Y-114722208D01*
X113119377Y-114680628D01*
X113108647Y-114637791D01*
X113102167Y-114594108D01*
X113100000Y-114550000D01*
X113100000Y-112450000D01*
X113102167Y-112405892D01*
X113108647Y-112362209D01*
X113119377Y-112319372D01*
X113134254Y-112277792D01*
X113153135Y-112237871D01*
X113175839Y-112199993D01*
X113202145Y-112164523D01*
X113231802Y-112131802D01*
X113264523Y-112102145D01*
X113299993Y-112075839D01*
X113337871Y-112053135D01*
X113377792Y-112034254D01*
X113419372Y-112019377D01*
X113462209Y-112008647D01*
X113505892Y-112002167D01*
X113550000Y-112000000D01*
X114450000Y-112000000D01*
X114494108Y-112002167D01*
G37*
%TD.AperFunction*%
%TA.AperFunction,ConnectorPad*%
G36*
X112094108Y-112002167D02*
G01*
X112137791Y-112008647D01*
X112180628Y-112019377D01*
X112222208Y-112034254D01*
X112262129Y-112053135D01*
X112300007Y-112075839D01*
X112335477Y-112102145D01*
X112368198Y-112131802D01*
X112397855Y-112164523D01*
X112424161Y-112199993D01*
X112446865Y-112237871D01*
X112465746Y-112277792D01*
X112480623Y-112319372D01*
X112491353Y-112362209D01*
X112497833Y-112405892D01*
X112500000Y-112450000D01*
X112500000Y-114550000D01*
X112497833Y-114594108D01*
X112491353Y-114637791D01*
X112480623Y-114680628D01*
X112465746Y-114722208D01*
X112446865Y-114762129D01*
X112424161Y-114800007D01*
X112397855Y-114835477D01*
X112368198Y-114868198D01*
X112335477Y-114897855D01*
X112300007Y-114924161D01*
X112262129Y-114946865D01*
X112222208Y-114965746D01*
X112180628Y-114980623D01*
X112137791Y-114991353D01*
X112094108Y-114997833D01*
X112050000Y-115000000D01*
X111150000Y-115000000D01*
X111105892Y-114997833D01*
X111062209Y-114991353D01*
X111019372Y-114980623D01*
X110977792Y-114965746D01*
X110937871Y-114946865D01*
X110899993Y-114924161D01*
X110864523Y-114897855D01*
X110831802Y-114868198D01*
X110802145Y-114835477D01*
X110775839Y-114800007D01*
X110753135Y-114762129D01*
X110734254Y-114722208D01*
X110719377Y-114680628D01*
X110708647Y-114637791D01*
X110702167Y-114594108D01*
X110700000Y-114550000D01*
X110700000Y-112450000D01*
X110702167Y-112405892D01*
X110708647Y-112362209D01*
X110719377Y-112319372D01*
X110734254Y-112277792D01*
X110753135Y-112237871D01*
X110775839Y-112199993D01*
X110802145Y-112164523D01*
X110831802Y-112131802D01*
X110864523Y-112102145D01*
X110899993Y-112075839D01*
X110937871Y-112053135D01*
X110977792Y-112034254D01*
X111019372Y-112019377D01*
X111062209Y-112008647D01*
X111105892Y-112002167D01*
X111150000Y-112000000D01*
X112050000Y-112000000D01*
X112094108Y-112002167D01*
G37*
%TD.AperFunction*%
%TA.AperFunction,ConnectorPad*%
G36*
X109694108Y-112002167D02*
G01*
X109737791Y-112008647D01*
X109780628Y-112019377D01*
X109822208Y-112034254D01*
X109862129Y-112053135D01*
X109900007Y-112075839D01*
X109935477Y-112102145D01*
X109968198Y-112131802D01*
X109997855Y-112164523D01*
X110024161Y-112199993D01*
X110046865Y-112237871D01*
X110065746Y-112277792D01*
X110080623Y-112319372D01*
X110091353Y-112362209D01*
X110097833Y-112405892D01*
X110100000Y-112450000D01*
X110100000Y-114550000D01*
X110097833Y-114594108D01*
X110091353Y-114637791D01*
X110080623Y-114680628D01*
X110065746Y-114722208D01*
X110046865Y-114762129D01*
X110024161Y-114800007D01*
X109997855Y-114835477D01*
X109968198Y-114868198D01*
X109935477Y-114897855D01*
X109900007Y-114924161D01*
X109862129Y-114946865D01*
X109822208Y-114965746D01*
X109780628Y-114980623D01*
X109737791Y-114991353D01*
X109694108Y-114997833D01*
X109650000Y-115000000D01*
X108750000Y-115000000D01*
X108705892Y-114997833D01*
X108662209Y-114991353D01*
X108619372Y-114980623D01*
X108577792Y-114965746D01*
X108537871Y-114946865D01*
X108499993Y-114924161D01*
X108464523Y-114897855D01*
X108431802Y-114868198D01*
X108402145Y-114835477D01*
X108375839Y-114800007D01*
X108353135Y-114762129D01*
X108334254Y-114722208D01*
X108319377Y-114680628D01*
X108308647Y-114637791D01*
X108302167Y-114594108D01*
X108300000Y-114550000D01*
X108300000Y-112450000D01*
X108302167Y-112405892D01*
X108308647Y-112362209D01*
X108319377Y-112319372D01*
X108334254Y-112277792D01*
X108353135Y-112237871D01*
X108375839Y-112199993D01*
X108402145Y-112164523D01*
X108431802Y-112131802D01*
X108464523Y-112102145D01*
X108499993Y-112075839D01*
X108537871Y-112053135D01*
X108577792Y-112034254D01*
X108619372Y-112019377D01*
X108662209Y-112008647D01*
X108705892Y-112002167D01*
X108750000Y-112000000D01*
X109650000Y-112000000D01*
X109694108Y-112002167D01*
G37*
%TD.AperFunction*%
%TA.AperFunction,ConnectorPad*%
G36*
X107294108Y-112002167D02*
G01*
X107337791Y-112008647D01*
X107380628Y-112019377D01*
X107422208Y-112034254D01*
X107462129Y-112053135D01*
X107500007Y-112075839D01*
X107535477Y-112102145D01*
X107568198Y-112131802D01*
X107597855Y-112164523D01*
X107624161Y-112199993D01*
X107646865Y-112237871D01*
X107665746Y-112277792D01*
X107680623Y-112319372D01*
X107691353Y-112362209D01*
X107697833Y-112405892D01*
X107700000Y-112450000D01*
X107700000Y-114550000D01*
X107697833Y-114594108D01*
X107691353Y-114637791D01*
X107680623Y-114680628D01*
X107665746Y-114722208D01*
X107646865Y-114762129D01*
X107624161Y-114800007D01*
X107597855Y-114835477D01*
X107568198Y-114868198D01*
X107535477Y-114897855D01*
X107500007Y-114924161D01*
X107462129Y-114946865D01*
X107422208Y-114965746D01*
X107380628Y-114980623D01*
X107337791Y-114991353D01*
X107294108Y-114997833D01*
X107250000Y-115000000D01*
X106350000Y-115000000D01*
X106305892Y-114997833D01*
X106262209Y-114991353D01*
X106219372Y-114980623D01*
X106177792Y-114965746D01*
X106137871Y-114946865D01*
X106099993Y-114924161D01*
X106064523Y-114897855D01*
X106031802Y-114868198D01*
X106002145Y-114835477D01*
X105975839Y-114800007D01*
X105953135Y-114762129D01*
X105934254Y-114722208D01*
X105919377Y-114680628D01*
X105908647Y-114637791D01*
X105902167Y-114594108D01*
X105900000Y-114550000D01*
X105900000Y-112450000D01*
X105902167Y-112405892D01*
X105908647Y-112362209D01*
X105919377Y-112319372D01*
X105934254Y-112277792D01*
X105953135Y-112237871D01*
X105975839Y-112199993D01*
X106002145Y-112164523D01*
X106031802Y-112131802D01*
X106064523Y-112102145D01*
X106099993Y-112075839D01*
X106137871Y-112053135D01*
X106177792Y-112034254D01*
X106219372Y-112019377D01*
X106262209Y-112008647D01*
X106305892Y-112002167D01*
X106350000Y-112000000D01*
X107250000Y-112000000D01*
X107294108Y-112002167D01*
G37*
%TD.AperFunction*%
%TA.AperFunction,ConnectorPad*%
G36*
X104894108Y-112002167D02*
G01*
X104937791Y-112008647D01*
X104980628Y-112019377D01*
X105022208Y-112034254D01*
X105062129Y-112053135D01*
X105100007Y-112075839D01*
X105135477Y-112102145D01*
X105168198Y-112131802D01*
X105197855Y-112164523D01*
X105224161Y-112199993D01*
X105246865Y-112237871D01*
X105265746Y-112277792D01*
X105280623Y-112319372D01*
X105291353Y-112362209D01*
X105297833Y-112405892D01*
X105300000Y-112450000D01*
X105300000Y-114550000D01*
X105297833Y-114594108D01*
X105291353Y-114637791D01*
X105280623Y-114680628D01*
X105265746Y-114722208D01*
X105246865Y-114762129D01*
X105224161Y-114800007D01*
X105197855Y-114835477D01*
X105168198Y-114868198D01*
X105135477Y-114897855D01*
X105100007Y-114924161D01*
X105062129Y-114946865D01*
X105022208Y-114965746D01*
X104980628Y-114980623D01*
X104937791Y-114991353D01*
X104894108Y-114997833D01*
X104850000Y-115000000D01*
X103950000Y-115000000D01*
X103905892Y-114997833D01*
X103862209Y-114991353D01*
X103819372Y-114980623D01*
X103777792Y-114965746D01*
X103737871Y-114946865D01*
X103699993Y-114924161D01*
X103664523Y-114897855D01*
X103631802Y-114868198D01*
X103602145Y-114835477D01*
X103575839Y-114800007D01*
X103553135Y-114762129D01*
X103534254Y-114722208D01*
X103519377Y-114680628D01*
X103508647Y-114637791D01*
X103502167Y-114594108D01*
X103500000Y-114550000D01*
X103500000Y-112450000D01*
X103502167Y-112405892D01*
X103508647Y-112362209D01*
X103519377Y-112319372D01*
X103534254Y-112277792D01*
X103553135Y-112237871D01*
X103575839Y-112199993D01*
X103602145Y-112164523D01*
X103631802Y-112131802D01*
X103664523Y-112102145D01*
X103699993Y-112075839D01*
X103737871Y-112053135D01*
X103777792Y-112034254D01*
X103819372Y-112019377D01*
X103862209Y-112008647D01*
X103905892Y-112002167D01*
X103950000Y-112000000D01*
X104850000Y-112000000D01*
X104894108Y-112002167D01*
G37*
%TD.AperFunction*%
%TA.AperFunction,ConnectorPad*%
G36*
X102494108Y-112002167D02*
G01*
X102537791Y-112008647D01*
X102580628Y-112019377D01*
X102622208Y-112034254D01*
X102662129Y-112053135D01*
X102700007Y-112075839D01*
X102735477Y-112102145D01*
X102768198Y-112131802D01*
X102797855Y-112164523D01*
X102824161Y-112199993D01*
X102846865Y-112237871D01*
X102865746Y-112277792D01*
X102880623Y-112319372D01*
X102891353Y-112362209D01*
X102897833Y-112405892D01*
X102900000Y-112450000D01*
X102900000Y-114550000D01*
X102897833Y-114594108D01*
X102891353Y-114637791D01*
X102880623Y-114680628D01*
X102865746Y-114722208D01*
X102846865Y-114762129D01*
X102824161Y-114800007D01*
X102797855Y-114835477D01*
X102768198Y-114868198D01*
X102735477Y-114897855D01*
X102700007Y-114924161D01*
X102662129Y-114946865D01*
X102622208Y-114965746D01*
X102580628Y-114980623D01*
X102537791Y-114991353D01*
X102494108Y-114997833D01*
X102450000Y-115000000D01*
X101550000Y-115000000D01*
X101505892Y-114997833D01*
X101462209Y-114991353D01*
X101419372Y-114980623D01*
X101377792Y-114965746D01*
X101337871Y-114946865D01*
X101299993Y-114924161D01*
X101264523Y-114897855D01*
X101231802Y-114868198D01*
X101202145Y-114835477D01*
X101175839Y-114800007D01*
X101153135Y-114762129D01*
X101134254Y-114722208D01*
X101119377Y-114680628D01*
X101108647Y-114637791D01*
X101102167Y-114594108D01*
X101100000Y-114550000D01*
X101100000Y-112450000D01*
X101102167Y-112405892D01*
X101108647Y-112362209D01*
X101119377Y-112319372D01*
X101134254Y-112277792D01*
X101153135Y-112237871D01*
X101175839Y-112199993D01*
X101202145Y-112164523D01*
X101231802Y-112131802D01*
X101264523Y-112102145D01*
X101299993Y-112075839D01*
X101337871Y-112053135D01*
X101377792Y-112034254D01*
X101419372Y-112019377D01*
X101462209Y-112008647D01*
X101505892Y-112002167D01*
X101550000Y-112000000D01*
X102450000Y-112000000D01*
X102494108Y-112002167D01*
G37*
%TD.AperFunction*%
D11*
X113500000Y-105500000D03*
X106000000Y-104250000D03*
X110000000Y-106750000D03*
X102500000Y-105500000D03*
X110000000Y-104250000D03*
X106000000Y-106750000D03*
D12*
X106800000Y-111400000D03*
X111600000Y-111400000D03*
X102000000Y-111400000D03*
X109200000Y-111400000D03*
X104400000Y-111400000D03*
X114000000Y-111400000D03*
D13*
X106000000Y-108100000D02*
X106000000Y-106750000D01*
X106800000Y-113750000D02*
X106800000Y-108900000D01*
X106800000Y-108900000D02*
X106000000Y-108100000D01*
X111600000Y-105850000D02*
X110000000Y-104250000D01*
X111600000Y-105850000D02*
X111600000Y-113750000D01*
X102000000Y-113750000D02*
X102000000Y-108900000D01*
X102000000Y-108900000D02*
X102500000Y-108400000D01*
X102500000Y-108400000D02*
X102500000Y-105500000D01*
X110000000Y-108100000D02*
X110000000Y-106750000D01*
X109200000Y-113750000D02*
X109200000Y-108900000D01*
X109200000Y-108900000D02*
X110000000Y-108100000D01*
X104400000Y-105850000D02*
X106000000Y-104250000D01*
X104400000Y-113750000D02*
X104400000Y-105850000D01*
X114000000Y-108900000D02*
X114000000Y-113750000D01*
X113500000Y-108400000D02*
X114000000Y-108900000D01*
X113500000Y-105500000D02*
X113500000Y-108400000D01*
D14*
G36*
X102454677Y-110909423D02*
G01*
X102494831Y-110936253D01*
X102763747Y-111205169D01*
X102790577Y-111245323D01*
X102800000Y-111292694D01*
X102800000Y-113790149D01*
X102790577Y-113837520D01*
X102769325Y-113869325D01*
X102737520Y-113890577D01*
X102690149Y-113900000D01*
X101309851Y-113900000D01*
X101262480Y-113890577D01*
X101230675Y-113869325D01*
X101209423Y-113837520D01*
X101200000Y-113790149D01*
X101200000Y-111292694D01*
X101209423Y-111245323D01*
X101236253Y-111205169D01*
X101505169Y-110936253D01*
X101545323Y-110909423D01*
X101592694Y-110900000D01*
X102407306Y-110900000D01*
X102454677Y-110909423D01*
G37*
X102454677Y-110909423D02*
X102494831Y-110936253D01*
X102763747Y-111205169D01*
X102790577Y-111245323D01*
X102800000Y-111292694D01*
X102800000Y-113790149D01*
X102790577Y-113837520D01*
X102769325Y-113869325D01*
X102737520Y-113890577D01*
X102690149Y-113900000D01*
X101309851Y-113900000D01*
X101262480Y-113890577D01*
X101230675Y-113869325D01*
X101209423Y-113837520D01*
X101200000Y-113790149D01*
X101200000Y-111292694D01*
X101209423Y-111245323D01*
X101236253Y-111205169D01*
X101505169Y-110936253D01*
X101545323Y-110909423D01*
X101592694Y-110900000D01*
X102407306Y-110900000D01*
X102454677Y-110909423D01*
G36*
X101200001Y-111321204D02*
G01*
X101200000Y-111321207D01*
X101200000Y-111292694D01*
X101200001Y-111292689D01*
X101200001Y-111321204D01*
G37*
X101200001Y-111321204D02*
X101200000Y-111321207D01*
X101200000Y-111292694D01*
X101200001Y-111292689D01*
X101200001Y-111321204D01*
G36*
X104854677Y-110909423D02*
G01*
X104894831Y-110936253D01*
X105163747Y-111205169D01*
X105190577Y-111245323D01*
X105200000Y-111292694D01*
X105200000Y-113790149D01*
X105190577Y-113837520D01*
X105169325Y-113869325D01*
X105137520Y-113890577D01*
X105090149Y-113900000D01*
X103709851Y-113900000D01*
X103662480Y-113890577D01*
X103630675Y-113869325D01*
X103609423Y-113837520D01*
X103600000Y-113790149D01*
X103600000Y-111292694D01*
X103609423Y-111245323D01*
X103636253Y-111205169D01*
X103905169Y-110936253D01*
X103945323Y-110909423D01*
X103992694Y-110900000D01*
X104807306Y-110900000D01*
X104854677Y-110909423D01*
G37*
X104854677Y-110909423D02*
X104894831Y-110936253D01*
X105163747Y-111205169D01*
X105190577Y-111245323D01*
X105200000Y-111292694D01*
X105200000Y-113790149D01*
X105190577Y-113837520D01*
X105169325Y-113869325D01*
X105137520Y-113890577D01*
X105090149Y-113900000D01*
X103709851Y-113900000D01*
X103662480Y-113890577D01*
X103630675Y-113869325D01*
X103609423Y-113837520D01*
X103600000Y-113790149D01*
X103600000Y-111292694D01*
X103609423Y-111245323D01*
X103636253Y-111205169D01*
X103905169Y-110936253D01*
X103945323Y-110909423D01*
X103992694Y-110900000D01*
X104807306Y-110900000D01*
X104854677Y-110909423D01*
G36*
X107254677Y-110909423D02*
G01*
X107294831Y-110936253D01*
X107563747Y-111205169D01*
X107590577Y-111245323D01*
X107600000Y-111292694D01*
X107600000Y-113790149D01*
X107590577Y-113837520D01*
X107569325Y-113869325D01*
X107537520Y-113890577D01*
X107490149Y-113900000D01*
X106109851Y-113900000D01*
X106062480Y-113890577D01*
X106030675Y-113869325D01*
X106009423Y-113837520D01*
X106000000Y-113790149D01*
X106000000Y-111292694D01*
X106009423Y-111245323D01*
X106036253Y-111205169D01*
X106305169Y-110936253D01*
X106345323Y-110909423D01*
X106392694Y-110900000D01*
X107207306Y-110900000D01*
X107254677Y-110909423D01*
G37*
X107254677Y-110909423D02*
X107294831Y-110936253D01*
X107563747Y-111205169D01*
X107590577Y-111245323D01*
X107600000Y-111292694D01*
X107600000Y-113790149D01*
X107590577Y-113837520D01*
X107569325Y-113869325D01*
X107537520Y-113890577D01*
X107490149Y-113900000D01*
X106109851Y-113900000D01*
X106062480Y-113890577D01*
X106030675Y-113869325D01*
X106009423Y-113837520D01*
X106000000Y-113790149D01*
X106000000Y-111292694D01*
X106009423Y-111245323D01*
X106036253Y-111205169D01*
X106305169Y-110936253D01*
X106345323Y-110909423D01*
X106392694Y-110900000D01*
X107207306Y-110900000D01*
X107254677Y-110909423D01*
G36*
X109654677Y-110909423D02*
G01*
X109694831Y-110936253D01*
X109963747Y-111205169D01*
X109990577Y-111245323D01*
X110000000Y-111292694D01*
X110000000Y-113790149D01*
X109990577Y-113837520D01*
X109969325Y-113869325D01*
X109937520Y-113890577D01*
X109890149Y-113900000D01*
X108509851Y-113900000D01*
X108462480Y-113890577D01*
X108430675Y-113869325D01*
X108409423Y-113837520D01*
X108400000Y-113790149D01*
X108400000Y-111292694D01*
X108409423Y-111245323D01*
X108436253Y-111205169D01*
X108705169Y-110936253D01*
X108745323Y-110909423D01*
X108792694Y-110900000D01*
X109607306Y-110900000D01*
X109654677Y-110909423D01*
G37*
X109654677Y-110909423D02*
X109694831Y-110936253D01*
X109963747Y-111205169D01*
X109990577Y-111245323D01*
X110000000Y-111292694D01*
X110000000Y-113790149D01*
X109990577Y-113837520D01*
X109969325Y-113869325D01*
X109937520Y-113890577D01*
X109890149Y-113900000D01*
X108509851Y-113900000D01*
X108462480Y-113890577D01*
X108430675Y-113869325D01*
X108409423Y-113837520D01*
X108400000Y-113790149D01*
X108400000Y-111292694D01*
X108409423Y-111245323D01*
X108436253Y-111205169D01*
X108705169Y-110936253D01*
X108745323Y-110909423D01*
X108792694Y-110900000D01*
X109607306Y-110900000D01*
X109654677Y-110909423D01*
G36*
X112054677Y-110909423D02*
G01*
X112094831Y-110936253D01*
X112363747Y-111205169D01*
X112390577Y-111245323D01*
X112400000Y-111292694D01*
X112400000Y-113790149D01*
X112390577Y-113837520D01*
X112369325Y-113869325D01*
X112337520Y-113890577D01*
X112290149Y-113900000D01*
X110909851Y-113900000D01*
X110862480Y-113890577D01*
X110830675Y-113869325D01*
X110809423Y-113837520D01*
X110800000Y-113790149D01*
X110800000Y-111292694D01*
X110809423Y-111245323D01*
X110836253Y-111205169D01*
X111105169Y-110936253D01*
X111145323Y-110909423D01*
X111192694Y-110900000D01*
X112007306Y-110900000D01*
X112054677Y-110909423D01*
G37*
X112054677Y-110909423D02*
X112094831Y-110936253D01*
X112363747Y-111205169D01*
X112390577Y-111245323D01*
X112400000Y-111292694D01*
X112400000Y-113790149D01*
X112390577Y-113837520D01*
X112369325Y-113869325D01*
X112337520Y-113890577D01*
X112290149Y-113900000D01*
X110909851Y-113900000D01*
X110862480Y-113890577D01*
X110830675Y-113869325D01*
X110809423Y-113837520D01*
X110800000Y-113790149D01*
X110800000Y-111292694D01*
X110809423Y-111245323D01*
X110836253Y-111205169D01*
X111105169Y-110936253D01*
X111145323Y-110909423D01*
X111192694Y-110900000D01*
X112007306Y-110900000D01*
X112054677Y-110909423D01*
G36*
X114454677Y-110909423D02*
G01*
X114494831Y-110936253D01*
X114763747Y-111205169D01*
X114790577Y-111245323D01*
X114800000Y-111292694D01*
X114800000Y-113790149D01*
X114790577Y-113837520D01*
X114769325Y-113869325D01*
X114737520Y-113890577D01*
X114690149Y-113900000D01*
X113309851Y-113900000D01*
X113262480Y-113890577D01*
X113230675Y-113869325D01*
X113209423Y-113837520D01*
X113200000Y-113790149D01*
X113200000Y-111292694D01*
X113209423Y-111245323D01*
X113236253Y-111205169D01*
X113505169Y-110936253D01*
X113545323Y-110909423D01*
X113592694Y-110900000D01*
X114407306Y-110900000D01*
X114454677Y-110909423D01*
G37*
X114454677Y-110909423D02*
X114494831Y-110936253D01*
X114763747Y-111205169D01*
X114790577Y-111245323D01*
X114800000Y-111292694D01*
X114800000Y-113790149D01*
X114790577Y-113837520D01*
X114769325Y-113869325D01*
X114737520Y-113890577D01*
X114690149Y-113900000D01*
X113309851Y-113900000D01*
X113262480Y-113890577D01*
X113230675Y-113869325D01*
X113209423Y-113837520D01*
X113200000Y-113790149D01*
X113200000Y-111292694D01*
X113209423Y-111245323D01*
X113236253Y-111205169D01*
X113505169Y-110936253D01*
X113545323Y-110909423D01*
X113592694Y-110900000D01*
X114407306Y-110900000D01*
X114454677Y-110909423D01*
M02*
