%TF.GenerationSoftware,KiCad,Pcbnew,(5.1.5)-3*%
%TF.CreationDate,2020-04-25T09:08:57+02:00*%
%TF.ProjectId,SlimMPX,536c696d-4d50-4582-9e6b-696361645f70,rev?*%
%TF.SameCoordinates,Original*%
%TF.FileFunction,Soldermask,Top*%
%TF.FilePolarity,Negative*%
%FSLAX46Y46*%
G04 Gerber Fmt 4.6, Leading zero omitted, Abs format (unit mm)*
G04 Created by KiCad (PCBNEW (5.1.5)-3) date 2020-04-25 09:08:57*
%MOMM*%
%LPD*%
G04 APERTURE LIST*
%ADD10C,0.100000*%
G04 APERTURE END LIST*
D10*
G36*
X112218455Y-111957528D02*
G01*
X112295812Y-111980995D01*
X112367117Y-112019108D01*
X112429608Y-112070392D01*
X112480892Y-112132883D01*
X112519005Y-112204188D01*
X112542472Y-112281545D01*
X112551000Y-112368140D01*
X112551000Y-114631860D01*
X112542472Y-114718455D01*
X112519005Y-114795812D01*
X112480892Y-114867117D01*
X112429608Y-114929608D01*
X112367117Y-114980892D01*
X112295812Y-115019005D01*
X112218455Y-115042472D01*
X112131860Y-115051000D01*
X111068140Y-115051000D01*
X110981545Y-115042472D01*
X110904188Y-115019005D01*
X110832883Y-114980892D01*
X110770392Y-114929608D01*
X110719108Y-114867117D01*
X110680995Y-114795812D01*
X110657528Y-114718455D01*
X110649000Y-114631860D01*
X110649000Y-112368140D01*
X110657528Y-112281545D01*
X110680995Y-112204188D01*
X110719108Y-112132883D01*
X110770392Y-112070392D01*
X110832883Y-112019108D01*
X110904188Y-111980995D01*
X110981545Y-111957528D01*
X111068140Y-111949000D01*
X112131860Y-111949000D01*
X112218455Y-111957528D01*
G37*
G36*
X114618455Y-111957528D02*
G01*
X114695812Y-111980995D01*
X114767117Y-112019108D01*
X114829608Y-112070392D01*
X114880892Y-112132883D01*
X114919005Y-112204188D01*
X114942472Y-112281545D01*
X114951000Y-112368140D01*
X114951000Y-114631860D01*
X114942472Y-114718455D01*
X114919005Y-114795812D01*
X114880892Y-114867117D01*
X114829608Y-114929608D01*
X114767117Y-114980892D01*
X114695812Y-115019005D01*
X114618455Y-115042472D01*
X114531860Y-115051000D01*
X113468140Y-115051000D01*
X113381545Y-115042472D01*
X113304188Y-115019005D01*
X113232883Y-114980892D01*
X113170392Y-114929608D01*
X113119108Y-114867117D01*
X113080995Y-114795812D01*
X113057528Y-114718455D01*
X113049000Y-114631860D01*
X113049000Y-112368140D01*
X113057528Y-112281545D01*
X113080995Y-112204188D01*
X113119108Y-112132883D01*
X113170392Y-112070392D01*
X113232883Y-112019108D01*
X113304188Y-111980995D01*
X113381545Y-111957528D01*
X113468140Y-111949000D01*
X114531860Y-111949000D01*
X114618455Y-111957528D01*
G37*
G36*
X102618455Y-111957528D02*
G01*
X102695812Y-111980995D01*
X102767117Y-112019108D01*
X102829608Y-112070392D01*
X102880892Y-112132883D01*
X102919005Y-112204188D01*
X102942472Y-112281545D01*
X102951000Y-112368140D01*
X102951000Y-114631860D01*
X102942472Y-114718455D01*
X102919005Y-114795812D01*
X102880892Y-114867117D01*
X102829608Y-114929608D01*
X102767117Y-114980892D01*
X102695812Y-115019005D01*
X102618455Y-115042472D01*
X102531860Y-115051000D01*
X101468140Y-115051000D01*
X101381545Y-115042472D01*
X101304188Y-115019005D01*
X101232883Y-114980892D01*
X101170392Y-114929608D01*
X101119108Y-114867117D01*
X101080995Y-114795812D01*
X101057528Y-114718455D01*
X101049000Y-114631860D01*
X101049000Y-112368140D01*
X101057528Y-112281545D01*
X101080995Y-112204188D01*
X101119108Y-112132883D01*
X101170392Y-112070392D01*
X101232883Y-112019108D01*
X101304188Y-111980995D01*
X101381545Y-111957528D01*
X101468140Y-111949000D01*
X102531860Y-111949000D01*
X102618455Y-111957528D01*
G37*
G36*
X105018455Y-111957528D02*
G01*
X105095812Y-111980995D01*
X105167117Y-112019108D01*
X105229608Y-112070392D01*
X105280892Y-112132883D01*
X105319005Y-112204188D01*
X105342472Y-112281545D01*
X105351000Y-112368140D01*
X105351000Y-114631860D01*
X105342472Y-114718455D01*
X105319005Y-114795812D01*
X105280892Y-114867117D01*
X105229608Y-114929608D01*
X105167117Y-114980892D01*
X105095812Y-115019005D01*
X105018455Y-115042472D01*
X104931860Y-115051000D01*
X103868140Y-115051000D01*
X103781545Y-115042472D01*
X103704188Y-115019005D01*
X103632883Y-114980892D01*
X103570392Y-114929608D01*
X103519108Y-114867117D01*
X103480995Y-114795812D01*
X103457528Y-114718455D01*
X103449000Y-114631860D01*
X103449000Y-112368140D01*
X103457528Y-112281545D01*
X103480995Y-112204188D01*
X103519108Y-112132883D01*
X103570392Y-112070392D01*
X103632883Y-112019108D01*
X103704188Y-111980995D01*
X103781545Y-111957528D01*
X103868140Y-111949000D01*
X104931860Y-111949000D01*
X105018455Y-111957528D01*
G37*
G36*
X109818455Y-111957528D02*
G01*
X109895812Y-111980995D01*
X109967117Y-112019108D01*
X110029608Y-112070392D01*
X110080892Y-112132883D01*
X110119005Y-112204188D01*
X110142472Y-112281545D01*
X110151000Y-112368140D01*
X110151000Y-114631860D01*
X110142472Y-114718455D01*
X110119005Y-114795812D01*
X110080892Y-114867117D01*
X110029608Y-114929608D01*
X109967117Y-114980892D01*
X109895812Y-115019005D01*
X109818455Y-115042472D01*
X109731860Y-115051000D01*
X108668140Y-115051000D01*
X108581545Y-115042472D01*
X108504188Y-115019005D01*
X108432883Y-114980892D01*
X108370392Y-114929608D01*
X108319108Y-114867117D01*
X108280995Y-114795812D01*
X108257528Y-114718455D01*
X108249000Y-114631860D01*
X108249000Y-112368140D01*
X108257528Y-112281545D01*
X108280995Y-112204188D01*
X108319108Y-112132883D01*
X108370392Y-112070392D01*
X108432883Y-112019108D01*
X108504188Y-111980995D01*
X108581545Y-111957528D01*
X108668140Y-111949000D01*
X109731860Y-111949000D01*
X109818455Y-111957528D01*
G37*
G36*
X107418455Y-111957528D02*
G01*
X107495812Y-111980995D01*
X107567117Y-112019108D01*
X107629608Y-112070392D01*
X107680892Y-112132883D01*
X107719005Y-112204188D01*
X107742472Y-112281545D01*
X107751000Y-112368140D01*
X107751000Y-114631860D01*
X107742472Y-114718455D01*
X107719005Y-114795812D01*
X107680892Y-114867117D01*
X107629608Y-114929608D01*
X107567117Y-114980892D01*
X107495812Y-115019005D01*
X107418455Y-115042472D01*
X107331860Y-115051000D01*
X106268140Y-115051000D01*
X106181545Y-115042472D01*
X106104188Y-115019005D01*
X106032883Y-114980892D01*
X105970392Y-114929608D01*
X105919108Y-114867117D01*
X105880995Y-114795812D01*
X105857528Y-114718455D01*
X105849000Y-114631860D01*
X105849000Y-112368140D01*
X105857528Y-112281545D01*
X105880995Y-112204188D01*
X105919108Y-112132883D01*
X105970392Y-112070392D01*
X106032883Y-112019108D01*
X106104188Y-111980995D01*
X106181545Y-111957528D01*
X106268140Y-111949000D01*
X107331860Y-111949000D01*
X107418455Y-111957528D01*
G37*
G36*
X106248228Y-105931703D02*
G01*
X106403100Y-105995853D01*
X106542481Y-106088985D01*
X106661015Y-106207519D01*
X106754147Y-106346900D01*
X106818297Y-106501772D01*
X106851000Y-106666184D01*
X106851000Y-106833816D01*
X106818297Y-106998228D01*
X106754147Y-107153100D01*
X106661015Y-107292481D01*
X106542481Y-107411015D01*
X106403100Y-107504147D01*
X106248228Y-107568297D01*
X106083816Y-107601000D01*
X105916184Y-107601000D01*
X105751772Y-107568297D01*
X105596900Y-107504147D01*
X105457519Y-107411015D01*
X105338985Y-107292481D01*
X105245853Y-107153100D01*
X105181703Y-106998228D01*
X105149000Y-106833816D01*
X105149000Y-106666184D01*
X105181703Y-106501772D01*
X105245853Y-106346900D01*
X105338985Y-106207519D01*
X105457519Y-106088985D01*
X105596900Y-105995853D01*
X105751772Y-105931703D01*
X105916184Y-105899000D01*
X106083816Y-105899000D01*
X106248228Y-105931703D01*
G37*
G36*
X110248228Y-105931703D02*
G01*
X110403100Y-105995853D01*
X110542481Y-106088985D01*
X110661015Y-106207519D01*
X110754147Y-106346900D01*
X110818297Y-106501772D01*
X110851000Y-106666184D01*
X110851000Y-106833816D01*
X110818297Y-106998228D01*
X110754147Y-107153100D01*
X110661015Y-107292481D01*
X110542481Y-107411015D01*
X110403100Y-107504147D01*
X110248228Y-107568297D01*
X110083816Y-107601000D01*
X109916184Y-107601000D01*
X109751772Y-107568297D01*
X109596900Y-107504147D01*
X109457519Y-107411015D01*
X109338985Y-107292481D01*
X109245853Y-107153100D01*
X109181703Y-106998228D01*
X109149000Y-106833816D01*
X109149000Y-106666184D01*
X109181703Y-106501772D01*
X109245853Y-106346900D01*
X109338985Y-106207519D01*
X109457519Y-106088985D01*
X109596900Y-105995853D01*
X109751772Y-105931703D01*
X109916184Y-105899000D01*
X110083816Y-105899000D01*
X110248228Y-105931703D01*
G37*
G36*
X113748228Y-104681703D02*
G01*
X113903100Y-104745853D01*
X114042481Y-104838985D01*
X114161015Y-104957519D01*
X114254147Y-105096900D01*
X114318297Y-105251772D01*
X114351000Y-105416184D01*
X114351000Y-105583816D01*
X114318297Y-105748228D01*
X114254147Y-105903100D01*
X114161015Y-106042481D01*
X114042481Y-106161015D01*
X113903100Y-106254147D01*
X113748228Y-106318297D01*
X113583816Y-106351000D01*
X113416184Y-106351000D01*
X113251772Y-106318297D01*
X113096900Y-106254147D01*
X112957519Y-106161015D01*
X112838985Y-106042481D01*
X112745853Y-105903100D01*
X112681703Y-105748228D01*
X112649000Y-105583816D01*
X112649000Y-105416184D01*
X112681703Y-105251772D01*
X112745853Y-105096900D01*
X112838985Y-104957519D01*
X112957519Y-104838985D01*
X113096900Y-104745853D01*
X113251772Y-104681703D01*
X113416184Y-104649000D01*
X113583816Y-104649000D01*
X113748228Y-104681703D01*
G37*
G36*
X102748228Y-104681703D02*
G01*
X102903100Y-104745853D01*
X103042481Y-104838985D01*
X103161015Y-104957519D01*
X103254147Y-105096900D01*
X103318297Y-105251772D01*
X103351000Y-105416184D01*
X103351000Y-105583816D01*
X103318297Y-105748228D01*
X103254147Y-105903100D01*
X103161015Y-106042481D01*
X103042481Y-106161015D01*
X102903100Y-106254147D01*
X102748228Y-106318297D01*
X102583816Y-106351000D01*
X102416184Y-106351000D01*
X102251772Y-106318297D01*
X102096900Y-106254147D01*
X101957519Y-106161015D01*
X101838985Y-106042481D01*
X101745853Y-105903100D01*
X101681703Y-105748228D01*
X101649000Y-105583816D01*
X101649000Y-105416184D01*
X101681703Y-105251772D01*
X101745853Y-105096900D01*
X101838985Y-104957519D01*
X101957519Y-104838985D01*
X102096900Y-104745853D01*
X102251772Y-104681703D01*
X102416184Y-104649000D01*
X102583816Y-104649000D01*
X102748228Y-104681703D01*
G37*
G36*
X106248228Y-103431703D02*
G01*
X106403100Y-103495853D01*
X106542481Y-103588985D01*
X106661015Y-103707519D01*
X106754147Y-103846900D01*
X106818297Y-104001772D01*
X106851000Y-104166184D01*
X106851000Y-104333816D01*
X106818297Y-104498228D01*
X106754147Y-104653100D01*
X106661015Y-104792481D01*
X106542481Y-104911015D01*
X106403100Y-105004147D01*
X106248228Y-105068297D01*
X106083816Y-105101000D01*
X105916184Y-105101000D01*
X105751772Y-105068297D01*
X105596900Y-105004147D01*
X105457519Y-104911015D01*
X105338985Y-104792481D01*
X105245853Y-104653100D01*
X105181703Y-104498228D01*
X105149000Y-104333816D01*
X105149000Y-104166184D01*
X105181703Y-104001772D01*
X105245853Y-103846900D01*
X105338985Y-103707519D01*
X105457519Y-103588985D01*
X105596900Y-103495853D01*
X105751772Y-103431703D01*
X105916184Y-103399000D01*
X106083816Y-103399000D01*
X106248228Y-103431703D01*
G37*
G36*
X110248228Y-103431703D02*
G01*
X110403100Y-103495853D01*
X110542481Y-103588985D01*
X110661015Y-103707519D01*
X110754147Y-103846900D01*
X110818297Y-104001772D01*
X110851000Y-104166184D01*
X110851000Y-104333816D01*
X110818297Y-104498228D01*
X110754147Y-104653100D01*
X110661015Y-104792481D01*
X110542481Y-104911015D01*
X110403100Y-105004147D01*
X110248228Y-105068297D01*
X110083816Y-105101000D01*
X109916184Y-105101000D01*
X109751772Y-105068297D01*
X109596900Y-105004147D01*
X109457519Y-104911015D01*
X109338985Y-104792481D01*
X109245853Y-104653100D01*
X109181703Y-104498228D01*
X109149000Y-104333816D01*
X109149000Y-104166184D01*
X109181703Y-104001772D01*
X109245853Y-103846900D01*
X109338985Y-103707519D01*
X109457519Y-103588985D01*
X109596900Y-103495853D01*
X109751772Y-103431703D01*
X109916184Y-103399000D01*
X110083816Y-103399000D01*
X110248228Y-103431703D01*
G37*
M02*
