%TF.GenerationSoftware,KiCad,Pcbnew,(5.0.1)-3*%
%TF.CreationDate,2018-12-01T22:01:47+01:00*%
%TF.ProjectId,SlimMPX,536C696D4D50582E6B696361645F7063,rev?*%
%TF.SameCoordinates,Original*%
%TF.FileFunction,Legend,Bot*%
%TF.FilePolarity,Positive*%
%FSLAX46Y46*%
G04 Gerber Fmt 4.6, Leading zero omitted, Abs format (unit mm)*
G04 Created by KiCad (PCBNEW (5.0.1)-3) date 01/12/2018 22:01:47*
%MOMM*%
%LPD*%
G01*
G04 APERTURE LIST*
%ADD10C,0.150000*%
G04 APERTURE END LIST*
D10*
X101714285Y-108752380D02*
X102285714Y-108752380D01*
X102000000Y-108752380D02*
X102000000Y-107752380D01*
X102095238Y-107895238D01*
X102190476Y-107990476D01*
X102285714Y-108038095D01*
X111361904Y-107752380D02*
X111838095Y-107752380D01*
X111885714Y-108228571D01*
X111838095Y-108180952D01*
X111742857Y-108133333D01*
X111504761Y-108133333D01*
X111409523Y-108180952D01*
X111361904Y-108228571D01*
X111314285Y-108323809D01*
X111314285Y-108561904D01*
X111361904Y-108657142D01*
X111409523Y-108704761D01*
X111504761Y-108752380D01*
X111742857Y-108752380D01*
X111838095Y-108704761D01*
X111885714Y-108657142D01*
X107133333Y-107752380D02*
X106514285Y-107752380D01*
X106847619Y-108133333D01*
X106704761Y-108133333D01*
X106609523Y-108180952D01*
X106561904Y-108228571D01*
X106514285Y-108323809D01*
X106514285Y-108561904D01*
X106561904Y-108657142D01*
X106609523Y-108704761D01*
X106704761Y-108752380D01*
X106990476Y-108752380D01*
X107085714Y-108704761D01*
X107133333Y-108657142D01*
X109009523Y-108085714D02*
X109009523Y-108752380D01*
X109247619Y-107704761D02*
X109485714Y-108419047D01*
X108866666Y-108419047D01*
X104685714Y-107847619D02*
X104638095Y-107800000D01*
X104542857Y-107752380D01*
X104304761Y-107752380D01*
X104209523Y-107800000D01*
X104161904Y-107847619D01*
X104114285Y-107942857D01*
X104114285Y-108038095D01*
X104161904Y-108180952D01*
X104733333Y-108752380D01*
X104114285Y-108752380D01*
X113809523Y-107652380D02*
X114000000Y-107652380D01*
X114095238Y-107700000D01*
X114142857Y-107747619D01*
X114238095Y-107890476D01*
X114285714Y-108080952D01*
X114285714Y-108461904D01*
X114238095Y-108557142D01*
X114190476Y-108604761D01*
X114095238Y-108652380D01*
X113904761Y-108652380D01*
X113809523Y-108604761D01*
X113761904Y-108557142D01*
X113714285Y-108461904D01*
X113714285Y-108223809D01*
X113761904Y-108128571D01*
X113809523Y-108080952D01*
X113904761Y-108033333D01*
X114095238Y-108033333D01*
X114190476Y-108080952D01*
X114238095Y-108128571D01*
X114285714Y-108223809D01*
M02*
